<svg width="24" height="24" xmlns="http://www.w3.org/2000/svg" data-name="Layer 1">

 <g>
  <title>Layer 1</title>
  <path transform="rotate(-90 12 12)" id="svg_1" d="m15.07294,2l-6.13544,0c-5.60419,0 -6.9375,1.33331 -6.9375,6.92706l0,6.13544c0,5.60413 1.32294,6.9375 6.92706,6.9375l6.13544,0c5.60419,0 6.9375,-1.32294 6.9375,-6.92712l0,-6.13538c0,-5.60419 -1.32294,-6.9375 -6.92706,-6.9375zm3.07287,14.27081l-1.45831,0c-0.55206,0 -0.71875,-0.44793 -1.70831,-1.4375c-0.86463,-0.83331 -1.22919,-0.9375 -1.44794,-0.9375c-0.30206,0 -0.38544,0.08332 -0.38544,0.5l0,1.3125c0,0.35419 -0.11456,0.5625 -1.04162,0.5625a5.69214,5.69214 0 0 1 -4.44794,-2.66668a11.62611,11.62611 0 0 1 -2.30206,-4.83332c0,-0.21875 0.08331,-0.41668 0.5,-0.41668l1.45831,0c0.375,0 0.51044,0.16668 0.65625,0.55212c0.70831,2.08331 1.91669,3.89581 2.40625,3.89581c0.1875,0 0.27081,-0.08331 0.27081,-0.55206l0,-2.14587c-0.0625,-0.97913 -0.58331,-1.0625 -0.58331,-1.41663a0.36008,0.36008 0 0 1 0.375,-0.33337l2.29169,0c0.3125,0 0.41662,0.15625 0.41662,0.53125l0,2.89587c0,0.3125 0.13544,0.41663 0.22919,0.41663c0.1875,0 0.33331,-0.10413 0.67706,-0.44788a11.99877,11.99877 0 0 0 1.79169,-2.97919a0.62818,0.62818 0 0 1 0.63544,-0.41668l1.45831,0c0.4375,0 0.53125,0.21875 0.4375,0.53125a18.20507,18.20507 0 0 1 -1.95831,3.36462c-0.15625,0.23956 -0.21875,0.36456 0,0.64581c0.14581,0.21875 0.65625,0.64582 1,1.05207a6.48553,6.48553 0 0 1 1.22912,1.70837c0.125,0.40625 -0.08331,0.61456 -0.5,0.61456z"/>
 </g>
</svg>