<svg width="20" height="20" xmlns="http://www.w3.org/2000/svg">
 <g>
  <title>Layer 1</title>
  <path transform="rotate(-90 12 12)" id="svg_1" d="m12,0c-6.627,0 -12,5.373 -12,12s5.373,12 12,12s12,-5.373 12,-12c0,-6.627 -5.373,-12 -12,-12zm5.894,8.221l-1.97,9.28c-0.145,0.658 -0.537,0.818 -1.084,0.508l-3,-2.21l-1.446,1.394c-0.14,0.18 -0.357,0.295 -0.6,0.295c-0.002,0 -0.003,0 -0.005,0c0.071,-1.018 0.142,-2.036 0.213,-3.054l5.56,-5.022c0.24,-0.213 -0.054,-0.334 -0.373,-0.121l-6.869,4.326l-2.96,-0.924c-0.64,-0.203 -0.658,-0.64 0.135,-0.954l11.566,-4.458c0.538,-0.196 1.006,0.128 0.832,0.941l0.001,-0.001z"/>
 </g>
</svg>