<?xml version="1.0" standalone="no"?>
<!DOCTYPE svg PUBLIC "-//W3C//DTD SVG 20010904//EN"
 "http://www.w3.org/TR/2001/REC-SVG-20010904/DTD/svg10.dtd">
<svg version="1.0" xmlns="http://www.w3.org/2000/svg"
 width="512.000000pt" height="512.000000pt" viewBox="0 0 512.000000 512.000000"
 preserveAspectRatio="xMidYMid meet">

<g transform="translate(0.000000,512.000000) scale(0.100000,-0.100000)"
fill="#000000" stroke="none">
<path d="M306 5109 c-62 -15 -153 -68 -197 -116 -22 -24 -55 -74 -72 -111
l-32 -67 -3 -327 -3 -328 80 0 81 0 0 80 0 80 1160 0 1160 0 0 80 0 80 -80 0
-80 0 0 155 c0 129 -3 165 -21 217 -39 121 -129 210 -248 248 -61 19 -89 20
-885 19 -455 -1 -838 -5 -860 -10z m1698 -161 c54 -16 128 -90 144 -144 7 -24
12 -100 12 -183 l0 -141 -1000 0 -1000 0 0 136 c0 78 5 154 12 178 15 51 99
137 148 153 53 16 1628 17 1684 1z"/>
<path d="M320 4720 l0 -80 680 0 680 0 0 80 0 80 -680 0 -680 0 0 -80z"/>
<path d="M1840 4720 l0 -80 80 0 80 0 0 80 0 80 -80 0 -80 0 0 -80z"/>
<path d="M2480 5040 l0 -80 80 0 80 0 0 80 0 80 -80 0 -80 0 0 -80z"/>
<path d="M2800 5040 l0 -80 976 0 c738 0 987 -3 1018 -12 55 -16 138 -99 154
-154 7 -24 12 -100 12 -178 l0 -136 -1160 0 -1160 0 0 -80 0 -80 1160 0 1160
0 0 -1976 c0 -1523 -3 -1986 -12 -2018 -16 -55 -99 -138 -154 -154 -60 -18
-4408 -18 -4468 0 -55 16 -138 99 -154 154 -9 32 -12 461 -12 1858 l0 1816
-80 0 -80 0 2 -1848 3 -1848 37 -76 c45 -91 103 -147 196 -191 l67 -32 2255 0
2255 0 67 32 c93 44 151 100 196 191 l37 76 0 2256 0 2256 -37 76 c-45 91
-103 147 -196 191 l-67 32 -1007 3 -1008 2 0 -80z"/>
<path d="M4000 4720 l0 -80 80 0 80 0 0 80 0 80 -80 0 -80 0 0 -80z"/>
<path d="M4320 4720 l0 -80 80 0 80 0 0 80 0 80 -80 0 -80 0 0 -80z"/>
<path d="M4640 4720 l0 -80 80 0 80 0 0 80 0 80 -80 0 -80 0 0 -80z"/>
<path d="M1065 4135 c-22 -21 -25 -33 -25 -98 l0 -74 -67 -26 -67 -27 -53 52
c-81 80 -88 77 -250 -85 -162 -162 -165 -169 -85 -250 l52 -53 -27 -67 -26
-67 -74 0 c-65 0 -77 -3 -98 -25 -25 -24 -25 -26 -25 -215 0 -189 0 -191 25
-215 21 -22 33 -25 98 -25 l74 0 26 -67 27 -67 -52 -53 c-80 -81 -77 -88 85
-250 162 -162 169 -165 250 -85 l53 52 67 -27 67 -26 0 -74 c0 -65 3 -77 25
-98 24 -25 26 -25 215 -25 189 0 191 0 215 25 22 21 25 33 25 98 l0 74 67 26
67 27 53 -52 c81 -80 88 -77 250 85 162 162 165 169 85 250 l-52 53 27 67 26
67 74 0 c65 0 77 3 98 25 25 24 25 26 25 215 0 189 0 191 -25 215 -21 22 -33
25 -98 25 l-74 0 -26 67 -27 67 52 53 c80 81 77 88 -85 250 -162 162 -169 165
-250 85 l-53 -52 -67 27 -67 26 0 74 c0 65 -3 77 -25 98 -24 25 -26 25 -215
25 -189 0 -191 0 -215 -25z m295 -198 c0 -80 15 -97 107 -127 37 -12 92 -35
120 -51 73 -40 94 -38 154 18 l50 47 56 -57 57 -56 -47 -50 c-56 -60 -58 -81
-18 -154 16 -28 39 -83 51 -120 30 -92 47 -107 127 -107 l63 0 0 -80 0 -80
-63 0 c-80 0 -97 -15 -127 -107 -12 -37 -35 -92 -51 -120 -40 -73 -38 -94 18
-154 l47 -50 -57 -56 -56 -57 -50 47 c-60 56 -81 58 -154 18 -28 -16 -83 -39
-120 -51 -92 -30 -107 -47 -107 -127 l0 -63 -80 0 -80 0 0 63 c0 80 -15 97
-107 127 -37 12 -92 35 -120 51 -73 40 -94 38 -154 -18 l-50 -47 -56 57 -57
56 47 50 c56 60 58 81 18 154 -16 28 -39 83 -51 120 -30 92 -47 107 -127 107
l-63 0 0 80 0 80 63 0 c80 0 97 15 127 107 12 37 35 92 51 120 40 73 38 94
-18 154 l-47 50 57 56 56 57 50 -47 c60 -56 81 -58 154 -18 28 16 83 39 120
51 92 30 107 47 107 127 l0 63 80 0 80 0 0 -63z"/>
<path d="M1186 3590 c-63 -16 -153 -70 -197 -117 -22 -24 -55 -74 -72 -111
-29 -61 -32 -76 -32 -163 0 -90 2 -99 37 -171 45 -91 103 -147 196 -191 61
-29 76 -32 162 -32 86 0 101 3 162 32 93 44 151 100 196 191 35 72 37 81 37
172 0 91 -2 100 -37 172 -68 136 -188 217 -336 224 -42 2 -94 -1 -116 -6z
m168 -162 c86 -26 166 -136 166 -228 0 -92 -80 -202 -166 -228 -94 -28 -169
-8 -239 63 -102 101 -102 229 0 330 70 71 145 90 239 63z"/>
<path d="M2560 4067 c-49 -16 -133 -102 -148 -153 -17 -59 -17 -1369 0 -1428
16 -55 99 -138 154 -154 31 -9 284 -12 1036 -12 1128 0 1055 -5 1131 80 24 26
49 66 55 88 17 56 17 1368 0 1424 -6 22 -31 62 -55 88 -77 85 -2 80 -1137 79
-699 -1 -1012 -4 -1036 -12z m2055 -172 l25 -24 0 -671 0 -671 -25 -24 -24
-25 -991 0 -991 0 -24 25 -25 24 0 671 0 671 25 24 24 25 991 0 991 0 24 -25z"/>
<path d="M3701 3592 c-288 -527 -403 -738 -404 -746 -2 -10 129 -84 136 -76 9
10 478 873 475 875 -2 1 -33 18 -70 38 l-67 36 -70 -127z"/>
<path d="M2927 3442 c-188 -189 -207 -211 -207 -242 0 -31 19 -53 210 -245
l210 -210 57 57 58 58 -170 170 -170 170 168 168 c92 92 167 172 167 177 0 14
-92 105 -106 105 -5 0 -103 -94 -217 -208z"/>
<path d="M3997 3602 c-26 -26 -47 -52 -47 -57 0 -5 75 -85 167 -177 l168 -168
-170 -170 -170 -170 58 -58 57 -57 210 210 c191 192 210 214 210 245 0 31 -19
53 -207 242 -114 114 -212 208 -218 208 -6 0 -32 -22 -58 -48z"/>
<path d="M3625 2215 c-22 -21 -25 -33 -25 -98 l0 -74 -67 -26 -67 -27 -53 52
c-81 80 -88 77 -250 -85 -162 -162 -165 -169 -85 -250 l52 -53 -27 -67 -26
-67 -74 0 c-65 0 -77 -3 -98 -25 -25 -24 -25 -26 -25 -215 0 -189 0 -191 25
-215 21 -22 33 -25 98 -25 l74 0 26 -67 27 -67 -52 -53 c-80 -81 -77 -88 85
-250 162 -162 169 -165 250 -85 l53 52 67 -27 67 -26 0 -74 c0 -65 3 -77 25
-98 24 -25 26 -25 215 -25 189 0 191 0 215 25 22 21 25 33 25 98 l0 74 67 26
67 27 53 -52 c81 -80 88 -77 250 85 162 162 165 169 85 250 l-52 53 27 67 26
67 74 0 c65 0 77 3 98 25 25 24 25 26 25 215 0 189 0 191 -25 215 -21 22 -33
25 -98 25 l-74 0 -26 67 -27 67 52 53 c80 81 77 88 -85 250 -162 162 -169 165
-250 85 l-53 -52 -67 27 -67 26 0 74 c0 65 -3 77 -25 98 -24 25 -26 25 -215
25 -189 0 -191 0 -215 -25z m295 -198 c0 -80 15 -97 107 -127 37 -12 92 -35
120 -51 73 -40 94 -38 154 18 l50 47 56 -57 57 -56 -47 -50 c-56 -60 -58 -81
-18 -154 16 -28 39 -83 51 -120 30 -92 47 -107 127 -107 l63 0 0 -80 0 -80
-63 0 c-80 0 -97 -15 -127 -107 -12 -37 -35 -92 -51 -120 -40 -73 -38 -94 18
-154 l47 -50 -57 -56 -56 -57 -50 47 c-60 56 -81 58 -154 18 -28 -16 -83 -39
-120 -51 -92 -30 -107 -47 -107 -127 l0 -63 -80 0 -80 0 0 63 c0 80 -15 97
-107 127 -37 12 -92 35 -120 51 -73 40 -94 38 -154 -18 l-50 -47 -56 57 -57
56 47 50 c56 60 58 81 18 154 -16 28 -39 83 -51 120 -30 92 -47 107 -127 107
l-63 0 0 80 0 80 63 0 c80 0 97 15 127 107 12 37 35 92 51 120 40 73 38 94
-18 154 l-47 50 57 56 56 57 50 -47 c60 -56 81 -58 154 -18 28 16 83 39 120
51 92 30 107 47 107 127 l0 63 80 0 80 0 0 -63z"/>
<path d="M3746 1670 c-63 -16 -153 -70 -197 -117 -22 -24 -55 -74 -72 -111
-29 -61 -32 -76 -32 -163 0 -90 2 -99 37 -171 45 -91 103 -147 196 -191 61
-29 76 -32 162 -32 86 0 101 3 162 32 93 44 151 100 196 191 35 72 37 81 37
172 0 91 -2 100 -37 172 -68 136 -188 217 -336 224 -42 2 -94 -1 -116 -6z
m168 -162 c86 -26 166 -136 166 -228 0 -124 -116 -240 -240 -240 -124 0 -240
116 -240 240 0 63 23 114 75 165 70 71 145 90 239 63z"/>
<path d="M480 2147 c-49 -16 -133 -102 -148 -153 -17 -59 -17 -1369 0 -1428
16 -55 99 -138 154 -154 31 -9 284 -12 1036 -12 1128 0 1055 -5 1131 80 24 26
49 66 55 88 17 56 17 1368 0 1424 -6 22 -31 62 -55 88 -77 85 -2 80 -1137 79
-699 -1 -1012 -4 -1036 -12z m2055 -172 l25 -24 0 -671 0 -671 -25 -24 -24
-25 -991 0 -991 0 -24 25 -25 24 0 671 0 671 25 24 24 25 991 0 991 0 24 -25z"/>
<path d="M640 1760 l0 -80 80 0 80 0 0 80 0 80 -80 0 -80 0 0 -80z"/>
<path d="M960 1760 l0 -80 720 0 720 0 0 80 0 80 -720 0 -720 0 0 -80z"/>
<path d="M640 1440 l0 -80 880 0 880 0 0 80 0 80 -880 0 -880 0 0 -80z"/>
<path d="M640 1120 l0 -80 880 0 880 0 0 80 0 80 -880 0 -880 0 0 -80z"/>
<path d="M640 800 l0 -80 880 0 880 0 0 80 0 80 -880 0 -880 0 0 -80z"/>
</g>
</svg>
