<?xml version="1.0" encoding="UTF-8"?>
<svg xmlns="http://www.w3.org/2000/svg" xmlns:xlink="http://www.w3.org/1999/xlink" width="200px" height="38px" viewBox="0 0 202 38" version="1.1">
<g id="surface1">
<path style=" stroke:none;fill-rule:nonzero;fill:rgb(13.72549%,12.156863%,12.54902%);fill-opacity:1;" d="M 54.34375 19.121094 L 47.019531 19.121094 L 47.019531 11.734375 L 54.742188 11.734375 C 57.566406 11.734375 58.984375 12.984375 58.984375 15.480469 C 58.984375 17.910156 57.433594 19.121094 54.34375 19.121094 M 59.609375 11.648438 C 58.597656 10.742188 57.195312 10.292969 55.394531 10.292969 L 44.902344 10.351562 L 44.902344 28.035156 L 47.019531 28.035156 L 47 20.503906 L 54.804688 20.503906 C 56.761719 20.503906 58.300781 20.050781 59.425781 19.15625 C 60.550781 18.25 61.113281 17 61.113281 15.398438 C 61.113281 13.796875 60.617188 12.546875 59.609375 11.648438 Z M 73.289062 24.320312 C 73.085938 24.898438 72.742188 25.414062 72.28125 25.824219 C 71.335938 26.753906 69.894531 27.214844 67.953125 27.214844 C 66.199219 27.214844 64.851562 26.773438 63.910156 25.863281 C 62.96875 24.953125 62.503906 23.753906 62.503906 22.246094 C 62.503906 21.457031 62.621094 20.761719 62.867188 20.148438 C 63.113281 19.539062 63.46875 19.023438 63.9375 18.609375 C 64.910156 17.71875 66.246094 17.273438 67.953125 17.273438 C 71.726562 17.273438 73.609375 18.929688 73.609375 22.246094 C 73.609375 23.035156 73.5 23.726562 73.292969 24.320312 M 73.679688 17.796875 C 72.394531 16.621094 70.484375 16.019531 67.957031 16.019531 C 65.570312 16.019531 63.726562 16.625 62.425781 17.828125 C 61.25 18.917969 60.660156 20.386719 60.660156 22.234375 C 60.660156 24.078125 61.265625 25.554688 62.476562 26.683594 C 63.144531 27.292969 63.925781 27.730469 64.816406 28.003906 C 65.710938 28.277344 66.75 28.410156 67.953125 28.410156 C 70.464844 28.410156 72.375 27.832031 73.6875 26.664062 C 74.867188 25.601562 75.457031 24.128906 75.457031 22.234375 C 75.457031 20.335938 74.867188 18.859375 73.679688 17.789062 Z M 89.660156 24.828125 C 89.660156 27.214844 87.535156 28.402344 83.285156 28.402344 C 81.984375 28.402344 80.890625 28.320312 80 28.152344 C 79.113281 27.984375 78.390625 27.710938 77.835938 27.332031 C 77.40625 27.039062 77.054688 26.648438 76.816406 26.1875 C 76.558594 25.726562 76.398438 25.136719 76.320312 24.417969 L 78.296875 24.398438 C 78.296875 25.335938 78.648438 26.027344 79.335938 26.464844 C 80.078125 27 81.394531 27.269531 83.285156 27.269531 C 86.253906 27.269531 87.742188 26.519531 87.742188 25.027344 C 87.742188 24.148438 87.234375 23.550781 86.246094 23.21875 C 86.042969 23.15625 84.84375 22.988281 82.652344 22.71875 C 80.453125 22.445312 79.074219 22.203125 78.53125 21.988281 C 77.363281 21.515625 76.777344 20.679688 76.777344 19.457031 C 76.777344 18.269531 77.296875 17.378906 78.355469 16.804688 C 78.871094 16.5625 79.519531 16.371094 80.289062 16.238281 C 81.074219 16.105469 81.96875 16.042969 82.992188 16.042969 C 87.082031 16.042969 89.128906 17.328125 89.128906 19.90625 L 87.25 19.90625 C 87.25 18.09375 85.8125 17.183594 82.933594 17.183594 C 81.46875 17.183594 80.382812 17.375 79.660156 17.734375 C 78.941406 18.09375 78.585938 18.664062 78.585938 19.425781 C 78.585938 20.132812 79.066406 20.644531 80.039062 20.960938 C 80.605469 21.128906 81.914062 21.316406 83.957031 21.535156 C 85.789062 21.695312 87.042969 21.933594 87.722656 22.230469 C 89.027344 22.738281 89.671875 23.59375 89.671875 24.816406 Z M 97.429688 28.054688 L 96.625 28.167969 L 96.125 28.207031 C 94.835938 28.207031 93.914062 28.023438 93.335938 27.648438 C 92.757812 27.273438 92.480469 26.617188 92.480469 25.6875 L 92.480469 17.605469 L 90.140625 17.605469 L 90.140625 16.417969 L 92.46875 16.417969 L 92.488281 12.605469 L 94.292969 12.605469 L 94.292969 16.417969 L 97.429688 16.417969 L 97.429688 17.625 L 94.292969 17.605469 L 94.292969 25.457031 C 94.292969 26.042969 94.449219 26.445312 94.757812 26.660156 C 95.066406 26.878906 95.613281 26.992188 96.414062 26.992188 C 96.523438 27.003906 96.648438 27 96.789062 26.980469 C 97 26.941406 97.210938 26.898438 97.414062 26.835938 L 97.433594 28.042969 Z M 109.898438 25.375 C 109.40625 25.785156 108.847656 26.089844 108.214844 26.304688 C 107.585938 26.523438 106.859375 26.625 106.039062 26.625 C 102.265625 26.625 100.386719 25.058594 100.386719 21.9375 C 100.386719 20.484375 100.863281 19.347656 101.832031 18.523438 C 102.796875 17.695312 104.15625 17.289062 105.910156 17.289062 C 107.671875 17.289062 109.011719 17.703125 109.925781 18.527344 C 110.84375 19.359375 111.296875 20.46875 111.296875 21.867188 C 111.296875 23.382812 110.832031 24.550781 109.898438 25.371094 M 113.101562 16.421875 L 111.300781 16.421875 L 111.28125 18.417969 C 110.484375 17.605469 109.917969 17.097656 109.578125 16.878906 C 108.566406 16.324219 107.261719 16.046875 105.660156 16.046875 C 103.3125 16.046875 101.515625 16.585938 100.285156 17.65625 C 99.109375 18.648438 98.523438 20.070312 98.523438 21.949219 C 98.523438 22.875 98.671875 23.699219 98.96875 24.417969 C 99.265625 25.140625 99.699219 25.765625 100.265625 26.265625 C 101.503906 27.308594 103.253906 27.828125 105.515625 27.828125 C 108.238281 27.828125 110.164062 27.078125 111.300781 25.589844 L 111.300781 27.652344 C 111.300781 28.972656 110.886719 29.988281 110.058594 30.714844 C 109.234375 31.433594 107.875 31.789062 105.980469 31.789062 C 104.199219 31.789062 102.933594 31.53125 102.179688 31.054688 C 101.613281 30.671875 101.21875 30.019531 101.003906 29.082031 L 99.144531 29.082031 C 99.347656 30.382812 99.90625 31.332031 100.785156 31.90625 C 101.824219 32.582031 103.5625 32.917969 106.03125 32.917969 C 110.734375 32.917969 113.09375 31.160156 113.09375 27.648438 L 113.09375 16.425781 Z M 122.855469 17.59375 C 122.316406 17.503906 121.8125 17.464844 121.339844 17.464844 C 118.378906 17.464844 116.898438 19.097656 116.898438 22.359375 L 116.898438 28.027344 L 115.113281 28.027344 L 115.09375 16.425781 L 116.898438 16.445312 L 116.898438 18.515625 L 116.996094 18.515625 C 117.292969 17.695312 117.777344 17.082031 118.433594 16.660156 C 119.148438 16.253906 120.222656 16.046875 121.652344 16.046875 L 122.855469 16.046875 L 122.855469 17.605469 Z M 124.535156 21.492188 C 124.761719 20.175781 125.273438 19.15625 126.0625 18.429688 C 126.582031 18.015625 127.167969 17.695312 127.824219 17.492188 C 128.480469 17.28125 129.210938 17.175781 130.039062 17.175781 C 131.636719 17.175781 132.941406 17.617188 133.964844 18.5 C 134.988281 19.378906 135.484375 20.382812 135.484375 21.492188 L 124.535156 21.492188 M 135.664062 17.914062 C 135.03125 17.277344 134.25 16.8125 133.316406 16.507812 C 132.382812 16.199219 131.296875 16.046875 130.035156 16.046875 C 127.699219 16.046875 125.886719 16.589844 124.597656 17.683594 C 123.308594 18.773438 122.664062 20.25 122.664062 22.128906 C 122.664062 24.007812 123.289062 25.488281 124.515625 26.597656 C 125.859375 27.8125 127.738281 28.417969 130.179688 28.417969 C 131.152344 28.417969 132.054688 28.304688 132.878906 28.085938 C 133.707031 27.867188 134.425781 27.554688 135.046875 27.152344 C 136.132812 26.367188 136.820312 25.402344 137.109375 24.253906 L 135.164062 24.253906 C 134.492188 26.242188 132.828125 27.234375 130.164062 27.234375 C 128.285156 27.234375 126.839844 26.75 125.832031 25.777344 C 124.964844 24.949219 124.53125 23.867188 124.53125 22.542969 L 137.378906 22.542969 C 137.378906 20.574219 136.8125 19.035156 135.660156 17.921875 Z M 135.664062 17.914062 "/>
<path style=" stroke:none;fill-rule:nonzero;fill:rgb(21.176471%,49.803922%,68.627451%);fill-opacity:1;" d="M 156.433594 23.292969 C 156.433594 26.738281 153.667969 28.460938 148.125 28.460938 C 144.808594 28.460938 142.386719 27.867188 140.863281 26.683594 C 139.609375 25.710938 138.988281 24.226562 138.988281 22.222656 L 141.21875 22.222656 C 141.21875 25.4375 143.519531 27.046875 148.125 27.046875 C 150.335938 27.046875 151.933594 26.71875 152.921875 26.0625 C 153.757812 25.476562 154.171875 24.566406 154.171875 23.332031 C 154.171875 22.105469 153.609375 21.238281 152.46875 20.746094 C 151.824219 20.480469 150.261719 20.144531 147.753906 19.742188 C 144.613281 19.257812 142.574219 18.777344 141.640625 18.296875 C 140.292969 17.589844 139.621094 16.386719 139.621094 14.6875 C 139.621094 13.113281 140.1875 11.933594 141.339844 11.164062 C 142.582031 10.316406 144.699219 9.890625 147.703125 9.890625 C 153.132812 9.890625 155.851562 11.695312 155.851562 15.320312 L 153.59375 15.320312 C 153.59375 12.605469 151.582031 11.25 147.550781 11.25 C 145.53125 11.25 144.054688 11.523438 143.117188 12.074219 C 142.230469 12.65625 141.792969 13.515625 141.792969 14.640625 C 141.792969 15.816406 142.363281 16.648438 143.496094 17.128906 C 144.101562 17.40625 145.882812 17.792969 148.835938 18.289062 C 151.613281 18.707031 153.488281 19.195312 154.457031 19.75 C 155.78125 20.429688 156.441406 21.613281 156.441406 23.292969 Z M 174.558594 25.054688 C 173.722656 25.71875 172.78125 26.21875 171.730469 26.558594 C 170.675781 26.894531 169.507812 27.058594 168.207031 27.058594 C 165.546875 27.058594 163.40625 26.34375 161.769531 24.90625 C 160.128906 23.472656 159.316406 21.5625 159.316406 19.175781 C 159.316406 16.679688 160.125 14.742188 161.753906 13.347656 C 163.375 11.957031 165.527344 11.261719 168.207031 11.261719 C 170.921875 11.261719 173.058594 11.992188 174.609375 13.441406 C 175.429688 14.15625 176.035156 14.980469 176.429688 15.929688 C 176.824219 16.878906 177.015625 17.953125 177.015625 19.175781 C 177.015625 21.648438 176.195312 23.609375 174.550781 25.054688 M 175.742188 26.222656 C 176.898438 25.394531 177.757812 24.402344 178.3125 23.234375 C 178.871094 22.0625 179.152344 20.710938 179.152344 19.179688 C 179.152344 16.4375 178.238281 14.238281 176.425781 12.578125 C 175.449219 11.667969 174.273438 10.988281 172.898438 10.550781 C 171.523438 10.105469 169.953125 9.878906 168.183594 9.878906 C 164.753906 9.878906 162.0625 10.71875 160.105469 12.386719 C 158.148438 14.054688 157.171875 16.324219 157.171875 19.179688 C 157.171875 21.964844 158.15625 24.207031 160.128906 25.917969 C 162.109375 27.625 164.804688 28.480469 168.226562 28.480469 C 169.566406 28.480469 170.730469 28.382812 171.722656 28.207031 C 172.722656 28.023438 173.570312 27.746094 174.265625 27.371094 L 177.558594 29.664062 L 178.9375 28.390625 Z M 195.84375 28.027344 L 180.601562 28.027344 L 180.601562 10.320312 L 182.699219 10.289062 L 182.699219 26.542969 L 195.855469 26.542969 L 195.835938 28.023438 Z M 195.84375 28.027344 "/>
<path style="fill-rule:nonzero;fill:rgb(13.72549%,12.156863%,12.54902%);fill-opacity:1;stroke-width:4.108;stroke-linecap:butt;stroke-linejoin:miter;stroke:rgb(13.72549%,12.156863%,12.54902%);stroke-opacity:1;stroke-miterlimit:4;" d="M 48.236386 39.566201 C 48.570545 37.191612 48.471535 36.846217 50.556931 37.234786 L 51.089109 37.277961 C 52.685644 37.339638 54.783416 37.055921 56.014851 36.568668 C 58.663366 35.532484 60.235149 33.787007 57.617574 34.243421 C 51.658416 35.285773 51.25 33.577303 51.25 33.577303 C 57.549505 25.657895 60.173267 15.610609 57.908416 13.149671 C 51.701733 6.445312 40.996287 9.621711 40.798267 9.701891 L 40.742574 9.714227 C 39.560644 9.498355 38.248762 9.381168 36.763614 9.356497 C 34.065594 9.31949 32.023515 9.960938 30.470297 10.953947 C 30.470297 10.953947 11.342822 4.27426 12.233911 19.360609 C 12.419554 22.561678 17.654703 43.630757 23.904703 37.265625 C 26.188119 34.940378 28.391089 32.972862 28.391089 32.972862 C 29.535891 33.620477 30.860149 33.898026 32.17203 33.787007 L 32.283416 33.712993 C 32.246287 34.002878 32.252475 34.280428 32.320545 34.619655 C 30.711634 36.143092 31.188119 36.408306 27.970297 36.969572 C 24.721535 37.537007 26.627475 38.554688 27.877475 38.819901 C 29.393564 39.140625 32.889851 39.590872 35.247525 36.784539 L 35.154703 37.111431 C 35.785891 37.530839 35.748762 40.182977 35.841584 42.070312 C 35.934406 43.969984 36.076733 45.733964 36.528465 46.776316 C 36.986386 47.8125 37.524752 50.495477 41.751238 49.724507 C 45.278465 49.089227 47.982673 48.164062 48.22401 39.566201 " transform="matrix(0.63125,0,0,0.633333,0,0)"/>
<path style=" stroke:none;fill-rule:nonzero;fill:rgb(25.490196%,48.235294%,63.529412%);fill-opacity:1;" d="M 36.371094 21.6875 C 32.609375 22.347656 32.351562 21.257812 32.351562 21.257812 C 36.328125 16.25 37.984375 9.886719 36.554688 8.328125 C 32.644531 4.082031 25.878906 6.09375 25.753906 6.144531 L 25.71875 6.152344 C 24.972656 6.015625 24.140625 5.941406 23.207031 5.925781 C 21.503906 5.902344 20.214844 6.308594 19.234375 6.9375 C 19.234375 6.9375 7.160156 2.707031 7.722656 12.261719 C 7.839844 14.289062 11.144531 27.632812 15.085938 23.601562 C 16.527344 22.128906 17.921875 20.882812 17.921875 20.882812 C 18.644531 21.292969 19.472656 21.46875 20.308594 21.398438 L 20.375 21.351562 C 20.355469 21.535156 20.359375 21.710938 20.402344 21.925781 C 19.386719 22.890625 19.683594 23.058594 17.65625 23.414062 C 15.605469 23.773438 16.808594 24.417969 17.597656 24.585938 C 18.554688 24.789062 20.761719 25.074219 22.25 23.296875 L 22.191406 23.503906 C 22.589844 23.769531 22.871094 25.265625 22.824219 26.617188 C 22.78125 27.96875 22.746094 28.894531 23.058594 29.625 C 23.375 30.351562 23.6875 31.980469 26.355469 31.492188 C 28.582031 31.089844 29.746094 30.035156 29.902344 28.277344 C 30.015625 27.03125 30.277344 27.214844 30.289062 26.09375 L 30.496094 25.570312 C 30.734375 23.871094 30.535156 23.332031 31.90625 23.582031 L 32.242188 23.613281 C 33.253906 23.652344 34.578125 23.472656 35.351562 23.167969 C 37.027344 22.503906 38.015625 21.40625 36.371094 21.691406 Z M 36.371094 21.6875 "/>
<path style="fill:none;stroke-width:1.369;stroke-linecap:round;stroke-linejoin:round;stroke:rgb(100%,100%,100%);stroke-opacity:1;stroke-miterlimit:4;" d="M 35.513614 35.773026 C 35.346535 40.750411 35.556931 45.752467 36.132426 46.973684 C 36.714109 48.194901 37.939356 50.563322 42.159653 49.79852 C 45.693069 49.150905 46.986386 47.905016 47.537129 45.172697 C 47.939356 43.149671 48.743812 37.549342 48.842822 36.402138 M 30.451733 10.842928 C 30.451733 10.842928 11.299505 4.212582 12.20297 19.298931 C 12.40099 22.506168 17.623762 43.569079 23.867574 37.203947 C 26.15099 34.872533 28.217822 33.046875 28.217822 33.046875 M 40.798267 9.627878 C 40.142327 9.812911 51.441832 6.130757 57.877475 13.094161 C 60.142327 15.548931 57.518564 25.596217 51.219059 33.515625 " transform="matrix(0.63125,0,0,0.633333,0,0)"/>
<path style="fill:none;stroke-width:1.369;stroke-linecap:round;stroke-linejoin:bevel;stroke:rgb(100%,100%,100%);stroke-opacity:1;stroke-miterlimit:4;" d="M 51.212871 33.515625 C 51.212871 33.515625 51.608911 35.224095 57.580446 34.181743 C 60.191832 33.725329 58.62005 35.464638 55.971535 36.50699 C 53.799505 37.358141 48.923267 37.580181 48.842822 36.402138 C 48.638614 33.349095 51.404703 34.27426 51.212871 33.515625 C 51.033416 32.831003 49.783416 32.152549 48.966584 30.46875 C 48.248762 28.994655 39.158416 17.726151 51.497525 19.403783 C 51.943069 19.317434 48.273515 9.455181 36.726485 9.294819 C 25.185644 9.128289 25.569307 21.315789 25.569307 21.315789 " transform="matrix(0.63125,0,0,0.633333,0,0)"/>
<path style="fill:none;stroke-width:1.369;stroke-linecap:butt;stroke-linejoin:round;stroke:rgb(100%,100%,100%);stroke-opacity:1;stroke-miterlimit:4;" d="M 32.283416 34.557977 C 30.680693 36.075247 31.15099 36.346628 27.939356 36.907895 C 24.684406 37.475329 26.596535 38.486842 27.846535 38.752056 C 29.350248 39.066612 32.846535 39.529194 35.216584 36.716694 C 35.940594 35.871711 35.216584 34.502467 34.226485 34.157072 C 33.75 33.984375 33.106436 33.774671 32.283416 34.557977 Z M 32.283416 34.557977 " transform="matrix(0.63125,0,0,0.633333,0,0)"/>
<path style="fill:none;stroke-width:1.369;stroke-linecap:round;stroke-linejoin:round;stroke:rgb(100%,100%,100%);stroke-opacity:1;stroke-miterlimit:4;" d="M 32.184406 34.533306 C 32.023515 33.632812 32.530941 32.565789 33.075495 31.319901 C 33.898515 29.451069 35.785891 27.576069 34.27599 21.648849 C 33.149752 17.220395 25.575495 20.723684 25.575495 21.328125 C 25.569307 21.92023 25.92203 24.368832 25.445545 27.206003 C 24.839109 30.912829 28.236386 34.046053 32.141089 33.725329 " transform="matrix(0.63125,0,0,0.633333,0,0)"/>
<path style="fill-rule:nonzero;fill:rgb(100%,100%,100%);fill-opacity:1;stroke-width:0.456;stroke-linecap:butt;stroke-linejoin:miter;stroke:rgb(100%,100%,100%);stroke-opacity:1;stroke-miterlimit:4;" d="M 30.377475 21.235609 C 30.346535 21.439145 30.829208 21.981908 31.441832 22.055921 C 32.066832 22.129934 32.592822 21.704359 32.62995 21.500822 C 32.660891 21.297286 32.190594 21.069079 31.565594 20.995066 C 30.940594 20.921053 30.408416 21.032072 30.377475 21.235609 Z M 30.377475 21.235609 " transform="matrix(0.63125,0,0,0.633333,0,0)"/>
<path style="fill-rule:nonzero;fill:rgb(100%,100%,100%);fill-opacity:1;stroke-width:0.228;stroke-linecap:butt;stroke-linejoin:miter;stroke:rgb(100%,100%,100%);stroke-opacity:1;stroke-miterlimit:4;" d="M 49.27599 20.810033 C 49.306931 21.025905 48.830446 21.5625 48.211634 21.642681 C 47.586634 21.710526 47.054455 21.284951 47.023515 21.075247 C 46.992574 20.877878 47.469059 20.649671 48.087871 20.575658 C 48.712871 20.501645 49.232673 20.606497 49.27599 20.810033 Z M 49.27599 20.810033 " transform="matrix(0.63125,0,0,0.633333,0,0)"/>
<path style="fill:none;stroke-width:1.369;stroke-linecap:round;stroke-linejoin:round;stroke:rgb(100%,100%,100%);stroke-opacity:1;stroke-miterlimit:4;" d="M 51.497525 19.403783 C 51.596535 21.007401 51.089109 22.099095 51.027228 23.813734 C 50.92203 26.299342 52.419554 29.142681 50.173267 31.992188 " transform="matrix(0.63125,0,0,0.633333,0,0)"/>
</g>
</svg>
